<svg id="Ebene_1" data-name="Ebene 1" xmlns="http://www.w3.org/2000/svg" xmlns:xlink="http://www.w3.org/1999/xlink" viewBox="0 0 106.13 106.36"><defs><style>.cls-1{fill:url(#Unbenannter_Verlauf);}.cls-2{fill:url(#Unbenannter_Verlauf_2);}.cls-3{fill:url(#Unbenannter_Verlauf_3);}.cls-4{fill:url(#Unbenannter_Verlauf_4);}.cls-5{fill:url(#Unbenannter_Verlauf_5);}.cls-6{fill:url(#Unbenannter_Verlauf_6);}.cls-7{fill:url(#Unbenannter_Verlauf_7);}.cls-8{fill:url(#Unbenannter_Verlauf_8);}.cls-9{fill:url(#Unbenannter_Verlauf_9);}.cls-10{fill:url(#Unbenannter_Verlauf_10);}</style><linearGradient id="Unbenannter_Verlauf" x1="-5.29" y1="51.62" x2="60.69" y2="69.29" gradientTransform="matrix(1, 0, 0, -1, 0, 113.87)" gradientUnits="userSpaceOnUse"><stop offset="0.31" stop-color="#00add0"/><stop offset="0.38" stop-color="#04aecb"/><stop offset="0.47" stop-color="#0eb1bc"/><stop offset="0.56" stop-color="#1fb5a4"/><stop offset="0.66" stop-color="#37bc82"/><stop offset="0.77" stop-color="#55c457"/><stop offset="0.87" stop-color="#7ace22"/><stop offset="0.93" stop-color="#92d400"/></linearGradient><linearGradient id="Unbenannter_Verlauf_2" x1="0.18" y1="63.14" x2="41.69" y2="83.83" xlink:href="#Unbenannter_Verlauf"/><linearGradient id="Unbenannter_Verlauf_3" x1="-1283.22" y1="721.18" x2="-1324.73" y2="700.49" gradientTransform="matrix(-1, 0, 0, 1, -1270.29, -664.02)" xlink:href="#Unbenannter_Verlauf"/><linearGradient id="Unbenannter_Verlauf_4" x1="6.64" y1="51.87" x2="72.61" y2="69.54" xlink:href="#Unbenannter_Verlauf"/><linearGradient id="Unbenannter_Verlauf_5" x1="-1270.47" y1="714.81" x2="-1311.97" y2="694.12" gradientTransform="matrix(-1, 0, 0, 1, -1244.77, -651.27)" xlink:href="#Unbenannter_Verlauf"/><linearGradient id="Unbenannter_Verlauf_6" x1="19.64" y1="51.87" x2="85.61" y2="69.54" xlink:href="#Unbenannter_Verlauf"/><linearGradient id="Unbenannter_Verlauf_7" x1="-1257.71" y1="708.43" x2="-1299.21" y2="687.74" gradientTransform="matrix(-1, 0, 0, 1, -1219.26, -638.51)" xlink:href="#Unbenannter_Verlauf"/><linearGradient id="Unbenannter_Verlauf_8" x1="32.71" y1="51.62" x2="98.68" y2="69.29" xlink:href="#Unbenannter_Verlauf"/><linearGradient id="Unbenannter_Verlauf_9" x1="-1244.95" y1="702.06" x2="-1286.46" y2="681.37" gradientTransform="matrix(-1, 0, 0, 1, -1193.75, -625.76)" xlink:href="#Unbenannter_Verlauf"/><linearGradient id="Unbenannter_Verlauf_10" x1="45.64" y1="51.86" x2="111.61" y2="69.53" xlink:href="#Unbenannter_Verlauf"/></defs><path class="cls-1" d="M27.64,106.35A27.53,27.53,0,0,1,.13,78.86V27.51a27.51,27.51,0,0,1,55,0V78.86A27.53,27.53,0,0,1,27.64,106.35Zm-.51-102a23,23,0,0,0-23,22.93V78.76a23.5,23.5,0,0,0,47,0V27.81a24,24,0,0,0-24-24Z"/><path class="cls-2" d="M1.81,51.76A1.8,1.8,0,0,1,0,50a1.78,1.78,0,0,1,1-1.61L39.27,29.22a1.79,1.79,0,0,1,2.41.8,1.82,1.82,0,0,1-.8,2.42L2.61,51.57A1.88,1.88,0,0,1,1.81,51.76Z"/><path class="cls-3" d="M14.56,58.19a1.81,1.81,0,0,1-1.8-1.81,1.79,1.79,0,0,1,1-1.6L52,35.65a1.79,1.79,0,0,1,2.41.8,1.82,1.82,0,0,1-.8,2.42L15.33,58A1.9,1.9,0,0,1,14.56,58.19Z"/><path class="cls-4" d="M39.63,106.36a27.51,27.51,0,0,1-27.5-27.5v-51C12.13,14.4,21.64,2.62,34.88.41a27.52,27.52,0,0,1,32.25,27.1V78.86A27.52,27.52,0,0,1,39.63,106.36Zm.5-102.49a24,24,0,0,0-24,23.92v51a23.5,23.5,0,0,0,47,0V27.32a23.06,23.06,0,0,0-23-23Z"/><path class="cls-5" d="M27.33,64.57a1.8,1.8,0,0,1-1.81-1.8,1.78,1.78,0,0,1,1-1.61L64.78,42a1.79,1.79,0,0,1,2.41.8,1.82,1.82,0,0,1-.8,2.42L28.12,64.38A1.84,1.84,0,0,1,27.33,64.57Z"/><path class="cls-6" d="M52.63,106.36a27.51,27.51,0,0,1-27.5-27.5v-51C25.13,14.4,34.64,2.62,47.88.41a27.52,27.52,0,0,1,32.25,27.1V78.86A27.52,27.52,0,0,1,52.63,106.36Zm.5-102.51a24,24,0,0,0-24,24V78.51a24,24,0,1,0,48,0V27.8a24,24,0,0,0-24-24Z"/><path class="cls-7" d="M40.07,71a1.81,1.81,0,0,1-1.8-1.81,1.79,1.79,0,0,1,1-1.6L77.53,48.4a1.79,1.79,0,0,1,2.41.8,1.82,1.82,0,0,1-.8,2.42L40.88,70.76A1.92,1.92,0,0,1,40.07,71Z"/><path class="cls-8" d="M65.62,106.35A27.51,27.51,0,0,1,38.13,78.86V27.51a27.51,27.51,0,0,1,55,0V78.86A27.54,27.54,0,0,1,65.62,106.35Zm.51-102.5a24,24,0,0,0-24,24v51a23.5,23.5,0,0,0,47,0V27.3a23,23,0,0,0-23-23Z"/><path class="cls-9" d="M52.83,77.33A1.8,1.8,0,0,1,51,75.53a1.78,1.78,0,0,1,1-1.61L90.33,54.76a1.79,1.79,0,0,1,2.41.8,1.82,1.82,0,0,1-.8,2.42L53.63,77.14A1.88,1.88,0,0,1,52.83,77.33Z"/><path class="cls-10" d="M78.62,106.36a27.52,27.52,0,0,1-27.49-27.5V27.51a27.5,27.5,0,0,1,55,0V78.86A27.53,27.53,0,0,1,78.62,106.36ZM78.13,3.85a24,24,0,0,0-24,24v50.7a24,24,0,0,0,48,0v-51a24,24,0,0,0-24-24Z"/></svg>