<?xml version="1.0" encoding="UTF-8" standalone="no"?>
<svg
   id="Ebene_1"
   data-name="Ebene 1"
   viewBox="0 0 160 46"
   version="1.1"
   sodipodi:docname="netbox_logo.svg"
   width="160"
   height="46"
   inkscape:version="1.1.2 (0a00cf5339, 2022-02-04)"
   xmlns:inkscape="http://www.inkscape.org/namespaces/inkscape"
   xmlns:sodipodi="http://sodipodi.sourceforge.net/DTD/sodipodi-0.dtd"
   xmlns:xlink="http://www.w3.org/1999/xlink"
   xmlns="http://www.w3.org/2000/svg"
   xmlns:svg="http://www.w3.org/2000/svg">
  <sodipodi:namedview
     id="namedview67"
     pagecolor="#ffffff"
     bordercolor="#666666"
     borderopacity="1.0"
     inkscape:pageshadow="2"
     inkscape:pageopacity="0.0"
     inkscape:pagecheckerboard="0"
     showgrid="false"
     fit-margin-top="0"
     fit-margin-left="0"
     fit-margin-right="0"
     fit-margin-bottom="0"
     height="40px"
     inkscape:zoom="5.9793814"
     inkscape:cx="76.34569"
     inkscape:cy="28.765517"
     inkscape:window-width="1920"
     inkscape:window-height="1031"
     inkscape:window-x="1920"
     inkscape:window-y="25"
     inkscape:window-maximized="1"
     inkscape:current-layer="Ebene_1" />
  <defs
     id="defs30">
    <style
       id="style2">.cls-1{fill:url(#Unbenannter_Verlauf_33);}.cls-2{fill:url(#Unbenannter_Verlauf_33-2);}.cls-3{fill:url(#Unbenannter_Verlauf_33-3);}.cls-4{fill:url(#Unbenannter_Verlauf_33-4);}.cls-5{fill:url(#Unbenannter_Verlauf_33-5);}.cls-6{fill:url(#Unbenannter_Verlauf_33-6);}.cls-7{fill:url(#Unbenannter_Verlauf_33-7);}.cls-8{fill:url(#Unbenannter_Verlauf_33-8);}.cls-9{fill:url(#Unbenannter_Verlauf_33-9);}.cls-10{fill:url(#Unbenannter_Verlauf_33-10);}.cls-11{fill:#011f3a;}</style>
    <linearGradient
       id="Unbenannter_Verlauf_33"
       x1="18.889999"
       y1="40.240002"
       x2="39.369999"
       y2="34.75"
       gradientUnits="userSpaceOnUse">
      <stop
         offset="0.31"
         stop-color="#00add0"
         id="stop4" />
      <stop
         offset="0.38"
         stop-color="#04aecb"
         id="stop6" />
      <stop
         offset="0.47"
         stop-color="#0eb1bc"
         id="stop8" />
      <stop
         offset="0.56"
         stop-color="#1fb5a4"
         id="stop10" />
      <stop
         offset="0.66"
         stop-color="#37bc82"
         id="stop12" />
      <stop
         offset="0.77"
         stop-color="#55c457"
         id="stop14" />
      <stop
         offset="0.87"
         stop-color="#7ace22"
         id="stop16" />
      <stop
         offset="0.93"
         stop-color="#92d400"
         id="stop18" />
    </linearGradient>
    <linearGradient
       id="Unbenannter_Verlauf_33-2"
       x1="20.65"
       y1="36.740002"
       x2="33.619999"
       y2="30.27"
       xlink:href="#Unbenannter_Verlauf_33"
       gradientTransform="translate(-16.595,-14.69781)" />
    <linearGradient
       id="Unbenannter_Verlauf_33-3"
       x1="-925.23999"
       y1="1313.05"
       x2="-938.21002"
       y2="1319.51"
       gradientTransform="rotate(180,-458.5425,668.5861)"
       xlink:href="#Unbenannter_Verlauf_33" />
    <linearGradient
       id="Unbenannter_Verlauf_33-4"
       x1="22.879999"
       y1="40.240002"
       x2="43.360001"
       y2="34.75"
       xlink:href="#Unbenannter_Verlauf_33"
       gradientTransform="translate(-16.595,-14.69781)" />
    <linearGradient
       id="Unbenannter_Verlauf_33-5"
       x1="-903.71002"
       y1="1323.8101"
       x2="-916.67999"
       y2="1330.28"
       gradientTransform="rotate(180,-445.7825,674.9661)"
       xlink:href="#Unbenannter_Verlauf_33" />
    <linearGradient
       id="Unbenannter_Verlauf_33-6"
       x1="26.870001"
       y1="40.240002"
       x2="47.34"
       y2="34.75"
       xlink:href="#Unbenannter_Verlauf_33"
       gradientTransform="translate(-16.595,-14.69781)" />
    <linearGradient
       id="Unbenannter_Verlauf_33-7"
       x1="-882.19"
       y1="1334.5699"
       x2="-895.15997"
       y2="1341.04"
       gradientTransform="rotate(180,-433.0275,681.3411)"
       xlink:href="#Unbenannter_Verlauf_33" />
    <linearGradient
       id="Unbenannter_Verlauf_33-8"
       x1="30.85"
       y1="40.240002"
       x2="51.330002"
       y2="34.75"
       xlink:href="#Unbenannter_Verlauf_33"
       gradientTransform="translate(-16.595,-14.69781)" />
    <linearGradient
       id="Unbenannter_Verlauf_33-9"
       x1="-860.65997"
       y1="1345.34"
       x2="-873.63"
       y2="1351.8"
       gradientTransform="rotate(180,-420.2725,687.7211)"
       xlink:href="#Unbenannter_Verlauf_33" />
    <linearGradient
       id="Unbenannter_Verlauf_33-10"
       x1="34.84"
       y1="40.240002"
       x2="55.310001"
       y2="34.75"
       xlink:href="#Unbenannter_Verlauf_33"
       gradientTransform="translate(-16.595,-14.69781)" />
    <linearGradient
       inkscape:collect="always"
       xlink:href="#Unbenannter_Verlauf_33"
       id="linearGradient69"
       gradientUnits="userSpaceOnUse"
       x1="18.889999"
       y1="40.240002"
       x2="39.369999"
       y2="34.75"
       gradientTransform="translate(-16.595,-14.69781)" />
  </defs>
  <path
     class="cls-1"
     d="m 12.535,39.30219 a 8.55,8.55 0 0 1 -8.53,-8.54 v -15.93 a 8.54,8.54 0 1 1 17.07,0 v 15.94 a 8.55,8.55 0 0 1 -8.54,8.53 z m 0,-31.89 a 7.42,7.42 0 0 0 -7.41,7.41 v 15.95 a 7.41,7.41 0 0 0 14.82,0 v -15.94 a 7.41,7.41 0 0 0 -7.41,-7.41 z"
     id="path32"
     style="fill:url(#linearGradient69)" />
  <path
     class="cls-2"
     d="m 4.565,22.36219 a 0.57,0.57 0 0 1 -0.25,-1.06 l 12,-6 a 0.56,0.56 0 0 1 0.75,0.25 0.56,0.56 0 0 1 -0.25,0.76 l -12,6 a 0.54,0.54 0 0 1 -0.25,0.05 z"
     id="path34"
     style="fill:url(#Unbenannter_Verlauf_33-2)" />
  <path
     class="cls-3"
     d="m 8.555,24.37219 a 0.57,0.57 0 0 1 -0.51,-0.32 0.57,0.57 0 0 1 0.25,-0.75 l 12,-6 a 0.56,0.56 0 0 1 0.76,0.25 0.57,0.57 0 0 1 -0.25,0.76 l -12,6 a 0.57,0.57 0 0 1 -0.25,0.06 z"
     id="path36"
     style="fill:url(#Unbenannter_Verlauf_33-3)" />
  <path
     class="cls-4"
     d="m 16.525,39.30219 a 8.55,8.55 0 0 1 -8.54,-8.54 v -15.93 a 8.54,8.54 0 1 1 17.07,0 v 15.94 a 8.55,8.55 0 0 1 -8.53,8.53 z m 0,-31.89 a 7.41,7.41 0 0 0 -7.41,7.41 v 15.95 a 7.41,7.41 0 0 0 14.82,0 v -15.94 a 7.42,7.42 0 0 0 -7.41,-7.41 z"
     id="path38"
     style="fill:url(#Unbenannter_Verlauf_33-4)" />
  <path
     class="cls-5"
     d="m 12.535,26.36219 a 0.57,0.57 0 0 1 -0.25,-1.06 l 12,-6 a 0.57,0.57 0 0 1 0.75,0.25 0.56,0.56 0 0 1 -0.25,0.76 l -12,6 a 0.54,0.54 0 0 1 -0.25,0.05 z"
     id="path40"
     style="fill:url(#Unbenannter_Verlauf_33-5)" />
  <path
     class="cls-6"
     d="m 20.505,39.30219 a 8.55,8.55 0 0 1 -8.53,-8.54 v -15.93 a 8.54,8.54 0 1 1 17.07,0 v 15.94 a 8.55,8.55 0 0 1 -8.54,8.53 z m 0,-31.89 a 7.42,7.42 0 0 0 -7.41,7.41 v 15.95 a 7.41,7.41 0 0 0 14.82,0 v -15.94 a 7.41,7.41 0 0 0 -7.41,-7.41 z"
     id="path42"
     style="fill:url(#Unbenannter_Verlauf_33-6)" />
  <path
     class="cls-7"
     d="m 16.525,28.35219 a 0.54,0.54 0 0 1 -0.5,-0.31 0.55,0.55 0 0 1 0.25,-0.75 l 12,-6 a 0.56,0.56 0 0 1 0.76,0.25 0.55,0.55 0 0 1 -0.25,0.75 l -12,6 a 0.57,0.57 0 0 1 -0.26,0.06 z"
     id="path44"
     style="fill:url(#Unbenannter_Verlauf_33-7)" />
  <path
     class="cls-8"
     d="m 24.495,39.30219 a 8.54,8.54 0 0 1 -8.53,-8.54 v -15.93 a 8.54,8.54 0 1 1 17.07,0 v 15.94 a 8.55,8.55 0 0 1 -8.54,8.53 z m 0,-31.89 a 7.41,7.41 0 0 0 -7.41,7.41 v 15.95 a 7.41,7.41 0 1 0 14.82,0 v -15.94 a 7.41,7.41 0 0 0 -7.41,-7.41 z"
     id="path46"
     style="fill:url(#Unbenannter_Verlauf_33-8)" />
  <path
     class="cls-9"
     d="m 20.505,30.30219 a 0.56,0.56 0 0 1 -0.25,-1 l 12,-6 a 0.56,0.56 0 0 1 0.76,0.25 0.58,0.58 0 0 1 -0.26,0.76 l -12,6 a 0.58,0.58 0 0 1 -0.25,-0.01 z"
     id="path48"
     style="fill:url(#Unbenannter_Verlauf_33-9)" />
  <path
     class="cls-10"
     d="m 28.485,39.30219 a 8.55,8.55 0 0 1 -8.54,-8.54 v -15.93 a 8.54,8.54 0 1 1 17.07,0 v 15.94 a 8.55,8.55 0 0 1 -8.53,8.53 z m 0,-31.89 a 7.41,7.41 0 0 0 -7.41,7.41 v 15.95 a 7.41,7.41 0 0 0 14.82,0 v -15.94 a 7.42,7.42 0 0 0 -7.41,-7.41 z"
     id="path50"
     style="fill:url(#Unbenannter_Verlauf_33-10)" />
  <path
     class="cls-11"
     d="m 45.235,33.30219 c -0.52,0 -0.74,-0.25 -0.68,-0.81 l 2.42,-19.47 c 0.06,-0.56 0.31,-0.8 0.84,-0.8 h 10.59 c 0.56,0 0.78,0.18 0.72,0.74 l -0.25,1.95 a 0.76,0.76 0 0 1 -0.87,0.78 h -7.15 l -0.62,5 h 6.66 c 0.53,0 0.72,0.19 0.65,0.75 l -0.21,1.86 c -0.06,0.52 -0.31,0.74 -0.87,0.74 h -6.64 l -0.74,5.77 h 7.5 c 0.56,0 0.81,0.18 0.72,0.74 l -0.28,1.95 c -0.1,0.56 -0.28,0.78 -0.84,0.78 z"
     id="path52" />
  <path
     class="cls-11"
     d="m 75.185,32.56219 c 0.19,0.38 0.1,0.78 -0.46,0.78 h -3.07 a 1.12,1.12 0 0 1 -1,-0.78 l -3,-6.38 -4.16,6.38 a 1.42,1.42 0 0 1 -1.09,0.74 h -3 c -0.5,0 -0.5,-0.5 -0.22,-0.9 l 6.86,-10 -4.22,-9.31 c -0.22,-0.46 -0.13,-0.86 0.4,-0.86 h 3.07 a 1.06,1.06 0 0 1 1,0.77 l 2.7,5.92 4,-5.92 a 1.46,1.46 0 0 1 1.2,-0.7 h 2.91 c 0.56,0 0.59,0.34 0.28,0.77 l -6.79,9.49 z"
     id="path54" />
  <path
     class="cls-11"
     d="m 79.065,17.06219 c 0.31,-2.6 2.29,-5.05 8,-5.05 5,0 7.07,2.14 7.07,4.49 a 5.72,5.72 0 0 1 0,0.78 l -1.36,11.25 c -0.31,2.61 -2.32,5.06 -8.06,5.06 -5.06,0 -7.07,-2.11 -7.07,-4.5 0,-0.18 0,-0.46 0.06,-0.77 z m 10.79,1 c 0,-0.25 0.06,-0.46 0.06,-0.59 0,-1.3 -1.12,-2 -3.13,-2 -2.01,0 -3.41,0.78 -3.6,2.33 l -1.21,9.76 c 0,0.25 -0.06,0.47 -0.06,0.59 0,1.3 1.11,2 3.13,2 2.02,0 3.36,-0.85 3.56,-2.36 z"
     id="path56" />
  <path
     class="cls-11"
     d="m 100.795,29.87219 h 6.91 c 0.53,0 0.81,0.18 0.71,0.74 l -0.27,1.95 c -0.1,0.56 -0.28,0.78 -0.84,0.78 h -10.45 c -0.47,0 -0.65,-0.28 -0.59,-0.81 l 2.42,-19.47 c 0.06,-0.56 0.31,-0.8 0.84,-0.8 h 2.69 c 0.56,0 0.72,0.24 0.65,0.8 z"
     id="path58" />
  <path
     class="cls-11"
     d="m 115.265,32.53219 c -0.06,0.56 -0.28,0.81 -0.83,0.81 h -2.7 c -0.53,0 -0.75,-0.25 -0.68,-0.81 l 2.42,-19.47 c 0.06,-0.56 0.3,-0.8 0.83,-0.8 h 2.7 c 0.56,0 0.71,0.24 0.65,0.8 z"
     id="path60" />
  <path
     class="cls-11"
     d="m 134.525,32.56219 c -0.07,0.53 -0.25,0.78 -0.81,0.78 h -2.31 c -0.43,0 -0.58,-0.12 -0.71,-0.37 l -4.74,-10.26 a 21.15,21.15 0 0 1 -0.93,-2.55 l -1.52,12.4 c -0.06,0.53 -0.25,0.78 -0.81,0.78 h -2.45 c -0.56,0 -0.74,-0.25 -0.68,-0.78 l 2.39,-19.53 a 0.75,0.75 0 0 1 0.87,-0.77 h 2.32 c 0.37,0 0.56,0.09 0.65,0.31 l 4.91,10.73 a 15.09,15.09 0 0 1 0.78,2.17 l 1.52,-12.4 a 0.74,0.74 0 0 1 0.83,-0.77 h 2.45 c 0.56,0 0.72,0.24 0.66,0.77 z"
     id="path62" />
  <path
     class="cls-11"
     d="m 154.405,32.56219 c 0.22,0.38 0.09,0.78 -0.47,0.78 h -3.41 c -0.56,0 -0.8,-0.37 -1,-0.78 l -4.81,-8.12 h -0.59 l -1,8.12 c -0.06,0.53 -0.25,0.78 -0.8,0.78 h -2.7 c -0.56,0 -0.75,-0.25 -0.68,-0.78 l 2.38,-19.53 a 0.75,0.75 0 0 1 0.87,-0.77 h 2.7 c 0.56,0 0.68,0.24 0.62,0.77 l -1,8.34 h 0.43 l 6.46,-8.34 a 1.79,1.79 0 0 1 1.33,-0.77 h 3 c 0.56,0 0.62,0.37 0.28,0.77 l -7.61,9.58 z"
     id="path64" />
</svg>
